<?xml version="1.0" encoding="utf-8"?>
<!-- Generator: Adobe Illustrator 26.2.1, SVG Export Plug-In . SVG Version: 6.00 Build 0)  -->
<svg version="1.1" id="katman_1" xmlns="http://www.w3.org/2000/svg" xmlns:xlink="http://www.w3.org/1999/xlink" x="0px" y="0px"
	 width="465px" height="465px" viewBox="0 0 465 465" style="enable-background:new 0 0 465 465;" xml:space="preserve">
<style type="text/css">
	.st0{fill-rule:evenodd;clip-rule:evenodd;fill:url(#SVGID_1_);}
	.st1{fill-rule:evenodd;clip-rule:evenodd;fill:url(#SVGID_00000012458249516135927440000000036280931346815645_);}
	.st2{fill-rule:evenodd;clip-rule:evenodd;fill:url(#SVGID_00000117648849715856046860000010934851144679163299_);}
	.st3{fill-rule:evenodd;clip-rule:evenodd;fill:url(#SVGID_00000078004491080589797790000005185255017917274774_);}
	.st4{fill-rule:evenodd;clip-rule:evenodd;fill:url(#SVGID_00000175314890829487983150000007451837632641828781_);}
	.st5{fill-rule:evenodd;clip-rule:evenodd;fill:url(#SVGID_00000049201025828180709900000004477338965182244261_);}
	.st6{fill-rule:evenodd;clip-rule:evenodd;fill:#F8F9F5;}
	.st7{fill:url(#SVGID_00000122680276944571666930000017232150570046350751_);}
</style>
<g>
	<linearGradient id="SVGID_1_" gradientUnits="userSpaceOnUse" x1="305.3972" y1="372.5518" x2="376.6563" y2="237.6743">
		<stop  offset="0.0851" style="stop-color:#F5FCF5"/>
		<stop  offset="1" style="stop-color:#BAE3C3"/>
	</linearGradient>
	<path class="st0" d="M326.18,338.94l-9.31-9.7c0,0-9.78-8.41,4.33-21.37c29.75-27.32,49.02-72.98,51.74-110.64
		c8.62-4.9,17.58-8.9,26.82-11.81c4.52-1.42,7.25-2.82,8.4-2.08c1.39,0.89,0.6,4.79-0.78,14.15c-6.25,42.55-26.1,90.65-57.97,122.75
		c-4.05,4.08-8.26,7.9-12.75,11.39C333.29,334.24,329.71,336.64,326.18,338.94z"/>
	
		<linearGradient id="SVGID_00000140704025165380161250000017641954969132646296_" gradientUnits="userSpaceOnUse" x1="537.2838" y1="161.6142" x2="356.0062" y2="342.8918">
		<stop  offset="0.0851" style="stop-color:#F5FCF5"/>
		<stop  offset="1" style="stop-color:#BAE3C3"/>
	</linearGradient>
	<path style="fill-rule:evenodd;clip-rule:evenodd;fill:url(#SVGID_00000140704025165380161250000017641954969132646296_);" d="
		M270.29,375.84c67.99-7.72,120.28-53.73,138.57-117.23c7.93-27.51,27.05-26.66,27.05-26.66l23.62-0.85
		c-0.77,7.62-1.94,15.15-3.46,22.37c-6.5,31.07-19.79,58.47-39.11,82.61c-4.31,5.38-9,10.61-13.89,15.67
		c-34.45,34.45-76.29,53.87-127.52,58.67c-9.17,0.85-8.65-1.87-9-9.39l-0.24-13.16l0.09-6.73l0.24-4.82L270.29,375.84z"/>
	
		<linearGradient id="SVGID_00000081646275076438621950000010240654924401247379_" gradientUnits="userSpaceOnUse" x1="81.3243" y1="246.6162" x2="165.1467" y2="374.8915">
		<stop  offset="0.0851" style="stop-color:#F5FCF5"/>
		<stop  offset="1" style="stop-color:#BAE3C3"/>
	</linearGradient>
	<path style="fill-rule:evenodd;clip-rule:evenodd;fill:url(#SVGID_00000081646275076438621950000010240654924401247379_);" d="
		M97.53,272.61l13.31-3.37c0,0,12.6-2.7,14.81,9.86c7.24,41.03,39.06,83.98,71.22,105.01c-0.05,6.99-0.58,13.9-1.21,20.66
		c0,0-0.82,4.51-1.65,8.81c-0.66,3.41-1.14,6.62-2.57,7.79c-2.23,1.84-16.5-10.65-27.35-21.08c-6.96-6.68-12.34-12.6-12.79-13.11
		C123,355.89,99.78,315.84,97.53,272.61z"/>
	
		<linearGradient id="SVGID_00000168804177596722161390000006907887632084780465_" gradientUnits="userSpaceOnUse" x1="205.8979" y1="506.2131" x2="81.5493" y2="290.835">
		<stop  offset="0.0851" style="stop-color:#F5FCF5"/>
		<stop  offset="1" style="stop-color:#BAE3C3"/>
	</linearGradient>
	<path style="fill-rule:evenodd;clip-rule:evenodd;fill:url(#SVGID_00000168804177596722161390000006907887632084780465_);" d="
		M68.59,187.81c5.34,2.39,10.61,4.99,15.69,7.87l11.65,7.16l-2.52,3.22c-27.67,63.55-14.49,134.06,34.1,180.43
		c16.09,15.36,8.34,34.13,8.34,34.13l-11.23,21.61c-26.83-19.36-47.7-43.93-61.74-71.33c-21.93-42.77-27.33-90.1-16.4-136.13
		c3.31-13.94,8.54-27.82,14.73-41.34C64.14,186.99,64.98,186.66,68.59,187.81z"/>
	
		<linearGradient id="SVGID_00000036234744525882018780000008170968712831545774_" gradientUnits="userSpaceOnUse" x1="306.1905" y1="109.8452" x2="149.9543" y2="114.9246">
		<stop  offset="0.0851" style="stop-color:#F5FCF5"/>
		<stop  offset="1" style="stop-color:#BAE3C3"/>
	</linearGradient>
	<path style="fill-rule:evenodd;clip-rule:evenodd;fill:url(#SVGID_00000036234744525882018780000008170968712831545774_);" d="
		M269.32,107.8l-3.66,12.31c0,0-3.82,12.63-18.99,7.81c-39.18-12.44-90.36-6.63-123.5,9.86l-0.32,0.16
		c-6.25-3.68-12.17-7.77-17.68-12.27l-4.5-3.85l-5.56-4.94l-0.97-0.97l-0.55-0.93c-0.05-0.27,0.02-0.62,0.27-0.93
		c0.18-0.22,0.47-0.39,0.77-0.63c0.87-0.57,2.3-1.22,4.35-2.15c3.4-1.54,6.96-3.01,10.67-4.41c1.27-0.44,2.72-1.02,4.04-1.49
		c3.18-1.13,6.32-2.18,9.53-3.14c2.65-0.79,5.58-1.64,7.98-2.28c5.84-1.56,10.21-2.5,12.01-2.88l1.95-0.41l0.77-0.16l0.53-0.11
		c24.3-4.88,50.87-6.55,75.71-3.17c8.78,1.26,17.6,3.04,26.03,5.72c4.34,1.38,8.57,2.92,12.73,4.76
		C263.76,104.95,266.55,106.38,269.32,107.8z"/>
	
		<linearGradient id="SVGID_00000031923964368281670290000010607057024315264130_" gradientUnits="userSpaceOnUse" x1="88.6711" y1="84.8022" x2="329.4429" y2="84.8022">
		<stop  offset="0.0851" style="stop-color:#F5FCF5"/>
		<stop  offset="1" style="stop-color:#BAE3C3"/>
	</linearGradient>
	<path style="fill-rule:evenodd;clip-rule:evenodd;fill:url(#SVGID_00000031923964368281670290000010607057024315264130_);" d="
		M328.69,137.37c-40.85-55.25-107.64-78.99-171.43-61.23c-27.32,5.56-36.44-10.84-36.44-10.84l-11.9-18.9
		c28.45-12.82,58.13-18.63,87.18-18.01l1.4,0.03c0.11,0.01,1.4,0.05,1.4,0.05l0.26,0.01c0.16,0.01,2.42,0.11,2.42,0.11
		c0.61,0.03,0.77,0.04,0.77,0.04c60.13,3.44,115.94,33.93,150.94,83.33c8.56,12.11,8.57,10.19-4.29,18.66
		c-5.9,3.88-12.18,7.44-18.72,10.65L328.69,137.37z"/>
	<path class="st6" d="M335.71,35.62c53.54,34.11,89.29,95.48,84.02,164.61c-4.67,61.48-47.36,126.37-93.56,138.7
		c47.95-29.48,77.23-99.57,82.17-149.25c0.87-8.83,0.6-7.16-8.58-4.27c-78.96,24.9-138.01,128.38-133.19,211.12
		c0.91,15.37-0.75,14.4,14.02,13.04c85.92-7.97,159.7-71.82,176.42-160.84c1.13-6.02,1.98-12.02,2.55-18.02
		c5.17,48.92-6.26,97.5-33.7,139.4c-16.12,24.59-38.45,47.62-77.35,65.84c-55.12,25.82-122.7,24.53-177.6-12.99
		c-50.9-34.78-85.75-104.2-73.34-150.37c1.56,56.26,47.63,116.66,88.17,145.79c7.21,5.17,5.9,4.1,7.99-5.29
		c17.92-80.83-42.17-183.72-116.24-220.9c-13.77-6.91-12.11-7.85-18.31,5.61c-36.05,78.39-17.65,174.23,51.08,233.2
		c4.65,3.99,9.43,7.72,14.34,11.21c-43.51-19.35-78.96-52-101.66-94.6C8.01,319.56,0.11,290.9,1.89,251.01
		c2.83-63.35,38.1-124.91,100.53-154.89c55.58-26.69,133.12-22.16,166.9,11.67c-49.5-26.78-124.84-17.09-170.34,3.47
		c-8.08,3.65-6.51,3.05,0.6,9.56c61.04,55.93,180.19,55.34,249.43,9.79c12.86-8.47,12.85-6.56,4.29-18.66
		C303.43,41.54,211.24,9.56,125.79,39.59c-5.78,2.04-11.41,4.31-16.88,6.81c40.53-29.48,89.37-43.87,140.41-40.34
		C273.17,7.71,309.41,18.87,335.71,35.62z"/>
	
		<linearGradient id="SVGID_00000075156046998351495280000013188433821143300510_" gradientUnits="userSpaceOnUse" x1="3.0892" y1="229.5343" x2="459.3284" y2="229.5343">
		<stop  offset="0" style="stop-color:#94B0A9"/>
		<stop  offset="0.277" style="stop-color:#9ACBA3"/>
		<stop  offset="0.3026" style="stop-color:#9FCF96"/>
		<stop  offset="0.3795" style="stop-color:#AED874"/>
		<stop  offset="0.4429" style="stop-color:#B7DE5F"/>
		<stop  offset="0.4845" style="stop-color:#BAE057"/>
		<stop  offset="0.7695" style="stop-color:#AFDC88"/>
		<stop  offset="1" style="stop-color:#A6D8B0"/>
	</linearGradient>
	<path style="fill:url(#SVGID_00000075156046998351495280000013188433821143300510_);" d="M270.07,452.08
		c-35.33,0-69.33-10.48-98.33-30.3C124.97,389.82,92.43,328.26,97,283.91c6.6,52.4,47.83,106.88,87.91,135.67
		c3.33,2.38,4.73,3.35,6.1,3.35c2.29,0,2.71-2.17,3.4-5.76c0.2-1.06,0.44-2.3,0.77-3.75c18.7-84.35-46.36-187.05-117.01-222.52
		c-1.34-0.67-2.53-1.29-3.6-1.84c-4.07-2.1-6.3-3.25-8.27-3.25c-3.24,0-4.5,2.77-7.25,8.85l-1.16,2.54
		c-37.04,80.53-15.88,177.13,51.45,234.92c1.02,0.87,2.04,1.73,3.08,2.59c-37.69-19.79-68-49.9-88.17-87.77
		C7.96,316.36,1.71,287.69,3.34,251.08c2.98-66.67,41.19-125.54,99.71-153.64c23-11.04,50.92-17.12,78.63-17.12
		c31.82,0,59.65,7.71,78.32,21.42c-18.33-7.71-40.54-11.74-64.98-11.74c-32.87,0-68.99,7.46-96.65,19.95
		c-4.12,1.86-6,2.71-6.26,4.46c-0.24,1.63,1.05,2.75,3.6,4.96c0.81,0.7,1.77,1.54,2.87,2.54c30.11,27.59,77.09,43.41,128.9,43.41
		c45.38,0,89.96-12.2,122.3-33.48c1.26-0.82,2.39-1.55,3.4-2.2c4.65-2.99,6.99-4.49,7.45-6.86c0.46-2.39-1.21-4.73-4.54-9.38
		l-1.62-2.27c-37.36-52.75-98.28-84.25-162.97-84.25c-22.5,0-44.78,3.82-66.2,11.35c-1.26,0.44-2.51,0.9-3.76,1.37
		c33.83-21.37,72.48-32.59,112.64-32.59c4.98,0,10.04,0.17,15.04,0.52c22.11,1.53,58.65,12.1,85.71,29.34
		c56.35,35.9,88.29,98.46,83.35,163.28c-4.29,56.49-41.33,115.46-82.04,133.67c42.1-31.92,68.67-94.87,73.55-143.97
		c0.42-4.26,0.62-6.2-0.45-7.39c-0.33-0.37-0.94-0.8-1.95-0.8c-1.05,0-2.32,0.44-4.42,1.17c-1.02,0.35-2.22,0.77-3.64,1.22
		c-82.39,25.98-138.81,133.67-134.2,212.6c0.09,1.5,0.15,2.85,0.21,4.05c0.37,7.82,0.53,11.06,6.55,11.06
		c1.53,0,3.52-0.19,6.04-0.44l2.8-0.27c88.26-8.19,161.34-74.81,177.72-162.02c0.25-1.32,0.48-2.64,0.7-3.96
		c1.79,44.19-10.02,86.89-34.51,124.29c-18.95,28.91-43.34,49.67-76.75,65.32C323.57,446.05,296.66,452.08,270.07,452.08z"/>
</g>
</svg>
