<?xml version="1.0" encoding="utf-8"?>
<!-- Generator: Adobe Illustrator 24.1.2, SVG Export Plug-In . SVG Version: 6.00 Build 0)  -->
<svg version="1.1" id="Layer_1" xmlns="http://www.w3.org/2000/svg" xmlns:xlink="http://www.w3.org/1999/xlink" x="0px" y="0px"
	 viewBox="0 0 163.3 46.1" style="enable-background:new 0 0 163.3 46.1;" xml:space="preserve">
<style type="text/css">
	.st0{fill:none;}
	.st1{fill-rule:evenodd;clip-rule:evenodd;fill:#AAAAAA;}
</style>
<g>
	<path class="st0" d="M-65.3-7h294v60h-294V-7z"/>
	<g>
		<path class="st1" d="M120,20.7c-3.5,0-5.2,1.9-5.2,5.8c0,3.5,2.1,5.7,5.4,5.7c0.6,0,1.4,0,2.4-0.1V21
			C121.5,20.8,120.7,20.7,120,20.7 M120,35.1c-5.6,0-9-3.2-9-8.4c0-5.4,3.2-8.8,8.3-8.8l0.4,0c0.6,0,1.5,0,2.7,0.2v-6.5h3.6v22.9
			C126.1,34.5,122.7,35.1,120,35.1 M70.4,34.5l-9.8-17.1l0,17.1h-3.4V12.9h4.8l9.8,17l0-17h3.5v21.7L70.4,34.5z M101.5,34.9
			c-1.6,0-3.4-0.2-5.4-0.6l-0.2,0v-3l0.3,0.1c1.8,0.4,3.4,0.7,4.9,0.7c1.3,0,4.2-0.2,4.2-2.1c0-1.6-2-2-3.7-2.3l-0.1,0
			c-0.3-0.1-0.6-0.1-0.8-0.2c-2.4-0.6-4.9-1.6-4.9-4.8c0-3.1,2.5-4.9,6.8-4.9c2.1,0,3.6,0.2,4.8,0.4l0.6,0.1v2.9l-0.3-0.1
			c-1.4-0.3-3-0.5-4.5-0.5c-1.7,0-3.7,0.3-3.7,1.8c0,1.3,1.7,1.6,3.6,2c2.7,0.6,6,1.3,6,5C109,32.9,106.3,34.9,101.5,34.9
			 M137.5,26.8c-3.1,0-5,0.5-5,2.7c0,2.6,2.4,2.8,4.7,2.8c0.9,0,2.4-0.1,2.9-0.1v-5.3C139.5,26.8,137.7,26.8,137.5,26.8 M136.3,34.9
			c-3.8,0-7.2-0.7-7.2-5.5c0-5.2,5.4-5.2,8.6-5.2c0.3,0,1.8,0.1,2.3,0.1c0-2.9,0-3.6-4.3-3.6c-1.7,0-3.6,0.3-5.2,0.6l-0.3,0.1v-2.9
			l0.2,0c1.9-0.4,3.8-0.6,5.6-0.6c4.1,0,7.6,0.4,7.6,5.5v11.1l-0.3,0C140.5,34.8,138.2,34.9,136.3,34.9 M86.7,26.8
			c-3.1,0-5,0.5-5,2.7c0,2.6,2.4,2.8,4.7,2.8c0.9,0,2.4-0.1,2.9-0.1v-5.3C88.6,26.8,86.9,26.8,86.7,26.8 M85.4,34.9
			c-3.8,0-7.2-0.7-7.2-5.5c0-5.2,5.4-5.2,8.6-5.2c0.3,0,1.8,0.1,2.3,0.1c0-2.9,0-3.6-4.3-3.6c-1.7,0-3.5,0.3-5.2,0.6l-0.3,0.1v-2.9
			l0.2,0c1.9-0.4,3.8-0.6,5.6-0.6c4.1,0,7.6,0.4,7.6,5.5v11.1l-0.3,0C89.6,34.8,87.4,34.9,85.4,34.9 M155.8,20.7
			c-3.7,0-5.5,1.9-5.5,5.6c0,4.8,2.8,5.8,5.1,5.8c0.6,0,1.2,0,2.6-0.2V20.8C156.9,20.8,156.4,20.7,155.8,20.7L155.8,20.7z M158,41.9
			v-7.1c-1.4,0.2-2.2,0.2-2.8,0.2c-1.4,0-3-0.3-4.3-0.8c-2.8-1.1-4.4-4.1-4.4-7.8c0-1.9,0.5-5.3,3.5-7.1c1.5-0.9,3.3-1.3,6-1.3
			c1,0,2.3,0.1,3.6,0.1l2.1,0.1v22.1L158,41.9L158,41.9z M14.1,11.5H27v0c-0.9,0-1.7,0.6-2.1,1.5l-12,33H0l12-33
			C12.3,12.1,13.2,11.5,14.1,11.5L14.1,11.5z M26,34c0.7,0,1.4-0.3,1.8-0.9c0.1-0.2,0.2-0.3,0.3-0.5l4.4-12.1l-2.6-7.1
			c-0.5-1.1-1.7-1.6-2.8-1.2c-0.4,0.2-0.7,0.4-0.9,0.7c0,0.1-0.2,0.3-0.3,0.5l-4.4,12.1l2.6,7.1C24.4,33.5,25.2,34,26,34L26,34z
			 M41,0L29,33c-0.3,0.8-1.1,1.4-1.9,1.5v0h12.7c1,0,1.8-0.6,2.2-1.5l12-33C53.9,0,41,0,41,0z"/>
	</g>
</g>
</svg>
