<?xml version="1.0" encoding="utf-8"?>
<!-- Generator: Adobe Illustrator 26.2.1, SVG Export Plug-In . SVG Version: 6.00 Build 0)  -->
<svg version="1.1" id="katman_1" xmlns="http://www.w3.org/2000/svg" xmlns:xlink="http://www.w3.org/1999/xlink" x="0px" y="0px"
	 width="200px" height="34px" viewBox="0 0 200 34" style="enable-background:new 0 0 200 34;" xml:space="preserve">
<polygon points="74.2,31.3 83.42,31.3 87.55,5.29 78.34,5.29 "/>
<path d="M154.6,12.72l1.31-7.43c0,0-19.11,0-22.83,0c-4.64,0-6.91,1.76-7.72,6.69c-0.49,2.92-2.69,15.81-3.24,19.33h29.16l1.15-6.5
	h-20.07l0.58-2.79h20l1.14-6.5H134l0.56-2.79H154.6z"/>
<path d="M116.45,5.29l-11.32,17.72L99.76,5.29h-9.81c0,0,7.08,20.61,7.67,22.11c1.27,3.28,2.53,3.91,6.1,3.91c2.36,0,5,0,5,0
	l17.52-26.01H116.45z"/>
<path d="M66.09,5.29H42.06l1.14,6.5h18.97c0,0,2.63,0.36,2.28,2.29c-0.4,2.18-2.39,2.35-2.39,2.35H41.35L38.56,31.3h8.27l1.29-7.43
	c0,0,10.17,0,11.81,0c2.2,0,2.61,1.35,2.34,2.96c-0.28,1.61-0.78,4.48-0.78,4.48h8.68l0.82-4.4c0.39-2.23,0.48-4.73-2.04-5.58
	c3.18-1.11,3.39-3.5,3.76-5.16c0.32-1.47,0.49-2.1,0.73-3.77C73.91,9.12,72.57,5.29,66.09,5.29z"/>
<path d="M187.75,5.37l-2.72,17.08l-5.17-17.08l-10.2,0l-4.19,26.3h9.32l1.33-8.38c0.81,2.32,1.41,4.04,1.56,4.43
	c1.25,3.22,2.49,3.91,5.88,3.95l0,0h0.29c2.38,0,9.03,0,9.03,0l4.18-26.3H187.75z"/>
<g>
	<path d="M12.18,7.56l2.61,0l0.56-0.79l1.11-1.56c-0.9,0-1.78,0-2.61,0L12.18,7.56z"/>
	<path d="M10.4,10.1l-1.63,2.34c0.77,0,1.65,0,2.6,0L13,10.11L10.4,10.1z"/>
	<polygon points="7.48,10.06 10.35,10.06 12.08,7.61 9.22,7.61 	"/>
	<path d="M29.39,5.21c-2.07,0-6.06,0-10.1,0l-1.66,2.37l2.92,0l-1.81,2.53l-2.82,0l-0.57,0.81l-1.07,1.52c4.99,0,10.54,0,11.83,0
		c2.83,0,2.94,1.18,2.56,3.68c-0.23,1.64-0.64,4.11-0.93,5.23c-0.68,2.54-1.92,3.2-3.22,3.2c-1.31,0-12.49,0-12.49,0l1.16-6.8H4.75
		L2.31,31.53c0,0,19.03,0,22.58,0c9.98,0,11.35-6.47,11.9-9.28c0.55-2.8,0.7-3.63,1.18-6.72C39.39,6.53,34.87,5.21,29.39,5.21z"/>
	<polygon points="14.82,7.6 13.09,10.05 15.35,10.05 15.88,10.05 17.6,7.61 15.35,7.61 	"/>
</g>
<polygon points="158.79,9.93 163.36,9.93 168.45,1.57 160.82,1.57 "/>
</svg>
